<?xml version="1.0" encoding="utf-8"?>
<!-- Generator: Adobe Illustrator 19.0.0, SVG Export Plug-In . SVG Version: 6.00 Build 0)  -->
<svg version="1.1" id="Layer_1" xmlns="http://www.w3.org/2000/svg" xmlns:xlink="http://www.w3.org/1999/xlink" x="0px" y="0px"
	 viewBox="0 0 57.4 25.8" style="enable-background:new 0 0 57.4 25.8;" xml:space="preserve">
<style type="text/css">
	.st0{fill:#FFFFFF;}
</style>
<g id="XMLID_48_">
	<g id="XMLID_1_">
		<g id="XMLID_54_">
			<path id="XMLID_58_" class="st0" d="M1.1,14.2c18,0,36,0,54.1,0c1.4,0,1.5-2.3,0-2.3c-18,0-36,0-54.1,0
				C-0.4,12-0.4,14.2,1.1,14.2L1.1,14.2z"/>
		</g>
	</g>
	<g id="XMLID_2_">
		<g id="XMLID_31_">
			<path id="XMLID_52_" class="st0" d="M30.5,2.1c8.4,4,16.8,8,25.1,12c1.3,0.6,2.4-1.3,1.1-1.9c-8.4-4-16.8-8-25.1-12
				C30.4-0.5,29.2,1.4,30.5,2.1L30.5,2.1z"/>
		</g>
	</g>
	<g id="XMLID_3_">
		<g id="XMLID_27_">
			<path id="XMLID_53_" class="st0" d="M55.7,12.2c-8.4,3.9-16.8,7.7-25.1,11.6c-1.3,0.6-0.2,2.5,1.1,1.9C40,21.8,48.4,18,56.8,14.1
				C58.1,13.5,57,11.5,55.7,12.2L55.7,12.2z"/>
		</g>
	</g>
</g>
<g id="XMLID_10_">
</g>
<g id="XMLID_11_">
</g>
<g id="XMLID_12_">
</g>
<g id="XMLID_17_">
</g>
<g id="XMLID_18_">
</g>
<g id="XMLID_19_">
</g>
<g id="XMLID_23_">
</g>
<g id="XMLID_24_">
</g>
<g id="XMLID_25_">
</g>
<g id="XMLID_26_">
</g>
<g id="XMLID_59_">
</g>
<g id="XMLID_60_">
</g>
<g id="XMLID_61_">
</g>
<g id="XMLID_62_">
</g>
<g id="XMLID_63_">
</g>
</svg>
